<svg width="137" height="60" viewBox="0 0 137 60" fill="none" xmlns="http://www.w3.org/2000/svg">
<path d="M24.7103 56.028H24.7101C23.5519 56.028 22.4409 55.6732 21.5815 55.0736L6.78573 44.7415C5.1274 43.5847 3.86914 41.1642 3.86914 39.1274V20.4757C3.86914 18.429 5.14675 16.0282 6.83081 14.8912L21.5749 4.93595C22.4395 4.35229 23.5598 4.03085 24.7256 4.03085C25.903 4.03085 27.0322 4.35775 27.9026 4.95212L42.3888 14.8852C44.0739 16.035 45.2694 18.4386 45.2694 20.4757V38.9122C45.2694 40.9345 44.1038 43.3486 42.4583 44.5282L27.8666 55.0334C26.9943 55.6588 25.8972 56.028 24.7103 56.028ZM24.7273 7.63897C24.2779 7.63897 23.8471 7.74884 23.5745 7.93313L8.87239 17.8882C8.18328 18.3536 7.54487 19.6351 7.54487 20.4755V39.1272C7.54487 39.9764 8.18328 41.2822 8.87239 41.7628L23.6413 52.0606C23.8991 52.2406 24.2865 52.3263 24.7099 52.3263H24.7101C25.1458 52.3263 25.5631 52.2352 25.8262 52.0468L40.4312 41.577C41.1279 41.0779 41.7872 39.7629 41.7872 38.9116V20.4751C41.7872 19.6369 41.1273 18.3474 40.4295 17.8715L25.8811 7.93878C25.6055 7.75118 25.1822 7.63897 24.7273 7.63897Z" fill="white"/>
<path d="M24.8505 54.1689C24.1013 54.1689 23.3729 53.948 22.7999 53.5471L7.58702 42.8939C6.53731 42.1595 5.80371 40.7467 5.80371 39.4586V20.2075C5.80371 18.9089 6.55046 17.4951 7.61971 16.7698L22.8128 6.45647C23.3834 6.06918 24.1071 5.85547 24.8505 5.85547C25.6014 5.85547 26.3313 6.07269 26.9059 6.46718L41.9177 16.771C42.9798 17.4992 43.7219 18.9128 43.7219 20.2079V39.459C43.7219 40.7432 42.9934 42.1558 41.9502 42.8941L26.9192 53.5363C26.3421 53.9441 25.6076 54.1689 24.8505 54.1689Z" fill="#333333"/>
<path d="M24.8506 7.8034C25.2005 7.8034 25.5509 7.89476 25.8159 8.07652L40.828 18.3803C41.3555 18.7421 41.7872 19.5646 41.7872 20.2075V39.4586C41.7872 40.1015 41.36 40.9302 40.8377 41.2998L25.8065 51.9422C25.5439 52.128 25.1972 52.221 24.8508 52.221C24.5078 52.221 24.1648 52.1298 23.904 51.9474L8.6915 41.2947C8.16742 40.9279 7.73852 40.1015 7.73852 39.4586V20.2075C7.73852 19.5646 8.17167 18.7444 8.70098 18.3852L23.8945 8.07165C24.1578 7.89282 24.5041 7.8034 24.8506 7.8034ZM24.8506 3.90715C23.7095 3.90715 22.6306 4.23015 21.7308 4.84167L6.5381 15.1544C4.94187 16.2374 3.86914 18.2681 3.86914 20.2073V39.4584C3.86914 41.3763 4.91982 43.3997 6.48336 44.4941L21.6947 55.1461C22.5898 55.7726 23.7101 56.117 24.8504 56.117C26.0018 56.117 27.1315 55.7663 28.031 55.1297L43.0628 44.4869C44.6138 43.3893 45.6561 41.3684 45.6561 39.4584V20.2073C45.6561 18.2755 44.5912 16.2471 43.0059 15.1601L27.9951 4.85686C27.0902 4.2358 26.0028 3.90715 24.8506 3.90715Z" fill="white"/>
<path d="M17.4702 19.6694C18.9621 19.6694 20.1715 18.8689 20.1715 17.8814C20.1715 16.8939 18.9621 16.0934 17.4702 16.0934C15.9783 16.0934 14.7689 16.8939 14.7689 17.8814C14.7689 18.8689 15.9783 19.6694 17.4702 19.6694Z" fill="white"/>
<path d="M24.6364 19.6024C26.1281 19.6024 27.3375 18.8017 27.3375 17.814C27.3375 16.8263 26.1281 16.0256 24.6364 16.0256C23.1446 16.0256 21.9353 16.8263 21.9353 17.814C21.9353 18.8017 23.1446 19.6024 24.6364 19.6024Z" fill="white"/>
<path d="M13.8942 32.3618C15.26 31.9767 16.7893 33.1876 17.3117 35.0668C17.8338 36.945 17.1509 38.7799 15.7857 39.1646C14.4212 39.5494 12.8907 38.3384 12.3686 36.4601C11.8464 34.5813 12.5299 32.7466 13.8942 32.3618Z" fill="white"/>
<path d="M37.3943 29.0512C38.6419 29.3266 39.3498 30.941 38.9761 32.6581C38.6023 34.3744 37.2889 35.5427 36.0413 35.2674C34.7946 34.9923 34.086 33.3776 34.4594 31.6615C34.8333 29.9446 36.1479 28.7761 37.3943 29.0512Z" fill="white"/>
<path d="M32.1257 37.8455C33.3422 38.2389 33.8949 39.9137 33.3615 41.5867C32.8279 43.2602 31.4107 44.2977 30.1946 43.9044C28.9791 43.5119 28.4256 41.8367 28.9589 40.1636C29.4919 38.4908 30.9098 37.4528 32.1257 37.8455Z" fill="white"/>
<path d="M32.0135 19.6694C33.5052 19.6694 34.7145 18.8689 34.7145 17.8814C34.7145 16.8939 33.5052 16.0934 32.0135 16.0934C30.5217 16.0934 29.3124 16.8939 29.3124 17.8814C29.3124 18.8689 30.5217 19.6694 32.0135 19.6694Z" fill="white"/>
<path d="M26.6974 30.3128H22.8282V53.885H26.6974V30.3128Z" fill="white"/>
<path d="M7.18957 16.4576L5.02625 19.6871L22.9884 31.8881L25.1517 28.6586L7.18957 16.4576Z" fill="white"/>
<path d="M44.5005 19.685L42.3372 16.4555L24.375 28.6566L26.5383 31.8861L44.5005 19.685Z" fill="white"/>
<path d="M57.8097 13.5948V10.8806H69.1131V13.5948H64.8717V26.2817H61.9466V13.5948H57.8097Z" fill="#2D2D2D"/>
<path d="M68.7157 23.4413V22.3894C68.7157 21.9549 68.7747 21.562 68.8933 21.2111C69.0115 20.8607 69.1963 20.5379 69.447 20.2433C69.6977 19.9488 70.0353 19.7208 70.4603 19.5595C70.8852 19.3984 71.3901 19.3176 71.9751 19.3176C72.5183 19.3176 73.0581 19.3213 73.5944 19.3281C74.1304 19.3353 74.6773 19.3318 75.2345 19.3176C75.2482 18.8547 75.2482 18.6162 75.2345 18.6022C75.2345 18.3077 75.2032 18.0694 75.1405 17.8869C75.0778 17.7045 74.9766 17.5644 74.8375 17.4661C74.6982 17.3681 74.545 17.305 74.3779 17.2767C74.2107 17.2487 74.0018 17.2344 73.7511 17.2344C72.8455 17.2344 71.2926 17.3118 69.0918 17.4659V15.6567C70.3313 15.1657 72.0169 14.9134 74.148 14.8992C75.4295 14.8992 76.4183 15.1694 77.1149 15.7093C77.8112 16.2493 78.1596 17.1787 78.1596 18.497V26.2817H75.8404L75.2345 25.0614C75.1786 25.1596 75.001 25.3104 74.7017 25.5136C74.402 25.7171 73.9809 25.9207 73.4376 26.1239C72.8944 26.3269 72.3649 26.4216 71.8497 26.4079C70.8468 26.3795 70.0738 26.0748 69.5305 25.4927C68.9873 24.9108 68.7157 24.227 68.7157 23.4413ZM71.6408 23.0205C71.6408 23.4413 71.7313 23.7186 71.9124 23.8518C72.0933 23.9853 72.3512 24.0515 72.6855 24.0515C72.8526 24.0515 73.0267 24.0342 73.2078 23.9989C73.3887 23.964 73.5593 23.9217 73.7197 23.8727C73.8797 23.8238 74.0364 23.7675 74.1898 23.7043C74.343 23.6414 74.4823 23.5783 74.6077 23.515C74.7331 23.4519 74.8408 23.3961 74.9315 23.3467C75.0219 23.2978 75.1229 23.2382 75.2345 23.1678V21.127L72.5392 21.3374C72.358 21.3514 72.2049 21.3972 72.0796 21.4741C71.9542 21.5513 71.8602 21.646 71.7975 21.7582C71.7348 21.8706 71.693 21.9826 71.6721 22.0948C71.6512 22.2072 71.6408 22.3336 71.6408 22.4735V23.0205Z" fill="#2D2D2D"/>
<path d="M79.9774 26.2817V9.76554H82.8816V15.6779C83.1182 15.5517 83.3899 15.4431 83.6965 15.3516C84.0027 15.2606 84.3024 15.187 84.5949 15.1307C84.8874 15.0748 85.1763 15.0292 85.462 14.9939C85.7474 14.959 86.0085 14.9413 86.2455 14.9413C86.8443 14.9413 87.3633 15.036 87.8021 15.2253C88.2409 15.4147 88.5924 15.6672 88.8572 15.9828C89.1217 16.2984 89.3306 16.7088 89.484 17.2136C89.6373 17.7185 89.7381 18.2445 89.787 18.7916C89.8356 19.3388 89.8601 19.9908 89.8601 20.7483C89.8601 22.5577 89.5813 23.9535 89.0244 24.9352C88.4672 25.9172 87.5409 26.4081 86.2455 26.4081C85.6466 26.4081 85.0405 26.2819 84.4278 26.0294C83.8147 25.777 83.3065 25.4824 82.9025 25.1458L82.3802 26.2819H79.9774V26.2817ZM82.9025 23.2099C83.6129 23.659 84.4763 23.8832 85.4933 23.8832C85.8135 23.8832 86.0784 23.7885 86.2873 23.5991C86.4962 23.4096 86.6562 23.0732 86.7679 22.589C86.8793 22.1051 86.935 21.4566 86.935 20.6429C86.935 19.7171 86.8756 19.0018 86.7574 18.4968C86.639 17.9919 86.4823 17.6587 86.2873 17.4974C86.0921 17.3363 85.8276 17.2555 85.4933 17.2555C84.9778 17.2555 84.5113 17.287 84.0935 17.3502C83.6756 17.4131 83.2786 17.522 82.9025 17.6763V23.2099Z" fill="#2D2D2D"/>
<path d="M91.3853 22.3052V9.80762H94.3104V21.8423C94.3104 22.5859 94.3868 23.1047 94.5402 23.3993C94.6934 23.6938 94.9372 23.9042 95.2715 24.0305C96.1072 24.325 96.5737 24.4723 96.6713 24.4723V26.2817H94.2475C93.7878 26.2817 93.3837 26.2118 93.0357 26.0713C92.6872 25.9313 92.388 25.7103 92.1372 25.4086C91.8865 25.1072 91.6985 24.6969 91.5731 24.1779C91.4479 23.659 91.3853 23.0348 91.3853 22.3052Z" fill="#2D2D2D"/>
<path d="M97.1309 20.6431C97.1309 19.6752 97.1899 18.8652 97.3085 18.213C97.4267 17.5607 97.5973 17.0209 97.8203 16.5929C98.043 16.1653 98.3564 15.8392 98.7606 15.6148C99.1643 15.3905 99.6137 15.2361 100.108 15.1519C100.602 15.0675 101.226 15.0257 101.978 15.0257C102.48 15.0257 102.904 15.0364 103.253 15.0572C103.601 15.0783 103.953 15.1203 104.308 15.1835C104.663 15.2464 104.952 15.3379 105.175 15.4568C105.398 15.5762 105.614 15.7375 105.823 15.9407C106.032 16.1443 106.195 16.3897 106.314 16.6771C106.432 16.9648 106.523 17.3083 106.585 17.708C106.648 18.1078 106.679 18.5673 106.679 19.0861C106.679 20.068 106.421 20.7833 105.906 21.2322C105.391 21.6812 104.618 21.9054 103.587 21.9054H100.056C100.056 22.5507 100.15 23.0311 100.338 23.3465C100.526 23.6621 100.763 23.8551 101.048 23.9253C101.334 23.9954 101.783 24.0305 102.396 24.0305C104.109 24.0305 105.467 23.9533 106.47 23.799V25.7978C105.426 26.1907 103.531 26.3869 100.787 26.3869C100.077 26.3869 99.4884 26.2817 99.0217 26.0713C98.5549 25.8609 98.1825 25.5173 97.9039 25.0404C97.6251 24.5637 97.4267 23.9745 97.3085 23.273C97.1899 22.5719 97.1309 21.695 97.1309 20.6431ZM100.056 19.7804H102.835C103.447 19.7804 103.754 19.5001 103.754 18.9388C103.754 18.2377 103.66 17.7854 103.472 17.5818C103.284 17.3786 102.842 17.2769 102.145 17.2769C101.699 17.2769 101.369 17.2946 101.153 17.3295C100.937 17.3648 100.728 17.4631 100.526 17.6241C100.324 17.7856 100.192 18.0343 100.129 18.371C100.066 18.7074 100.042 19.1775 100.056 19.7804Z" fill="#2D2D2D"/>
<path d="M107.431 17.3398V15.6987L109.228 15.0886L109.709 11.9747H112.153V15.0886H114.639V17.3398H112.153V21.8213C112.153 22.3405 112.195 22.7578 112.278 23.0734C112.362 23.3889 112.467 23.6066 112.592 23.7256C112.717 23.8448 112.884 23.9465 113.093 24.0307C113.929 24.3252 114.395 24.4725 114.493 24.4725V26.2819H111.944C111.08 26.2819 110.412 25.9698 109.938 25.3456C109.465 24.7217 109.228 23.7012 109.228 22.2844V17.3398H107.431Z" fill="#2D2D2D"/>
<path d="M115.433 20.8535C115.433 19.7037 115.517 18.7567 115.684 18.0131C115.851 17.2699 116.144 16.6738 116.561 16.2247C116.979 15.7759 117.498 15.4603 118.118 15.2779C118.738 15.0958 119.528 15.0046 120.489 15.0046C122.398 15.0046 123.718 15.4254 124.449 16.2668C125.18 17.1084 125.546 18.6375 125.546 20.8535C125.546 22.9436 125.187 24.3883 124.47 25.1876C123.752 25.9871 122.425 26.3869 120.489 26.3869C119.723 26.3869 119.058 26.3201 118.494 26.187C117.93 26.054 117.449 25.8541 117.052 25.5874C116.655 25.3213 116.338 24.9667 116.102 24.5251C115.865 24.0831 115.694 23.5643 115.59 22.9681C115.485 22.372 115.433 21.6672 115.433 20.8535ZM118.358 20.8535C118.358 21.5688 118.393 22.1369 118.463 22.5577C118.532 22.9785 118.661 23.2978 118.849 23.515C119.037 23.7326 119.25 23.8693 119.487 23.9253C119.723 23.9814 120.057 24.0094 120.489 24.0094C120.866 24.0094 121.155 23.9956 121.357 23.9673C121.558 23.9393 121.754 23.8693 121.942 23.7569C122.13 23.6449 122.269 23.4696 122.359 23.2309C122.45 22.9925 122.516 22.6876 122.558 22.3157C122.6 21.9444 122.621 21.4568 122.621 20.8535C122.621 20.2084 122.603 19.6858 122.568 19.286C122.533 18.8862 122.474 18.5496 122.391 18.2761C122.307 18.0026 122.175 17.8062 121.994 17.687C121.813 17.5682 121.611 17.4838 121.388 17.4345C121.165 17.3856 120.866 17.3609 120.489 17.3609C120.183 17.3609 119.932 17.3749 119.737 17.4029C119.542 17.4314 119.354 17.4908 119.173 17.5818C118.992 17.6733 118.856 17.7922 118.766 17.9395C118.675 18.0867 118.595 18.2938 118.525 18.5603C118.456 18.8268 118.411 19.1424 118.39 19.5069C118.369 19.8718 118.358 20.3205 118.358 20.8535Z" fill="#2D2D2D"/>
<path d="M126.987 31.9624V15.1096H129.39L129.892 16.2247C130.295 15.9023 130.807 15.6146 131.427 15.3621C132.047 15.1096 132.657 14.9834 133.256 14.9834C133.799 14.9834 134.276 15.0748 134.687 15.2569C135.097 15.4394 135.439 15.6917 135.711 16.0143C135.982 16.3371 136.208 16.7369 136.39 17.2136C136.57 17.6905 136.696 18.2097 136.766 18.7705C136.835 19.3316 136.87 19.956 136.87 20.6429C136.87 21.2182 136.853 21.7369 136.818 22.1998C136.783 22.6627 136.717 23.1223 136.619 23.5779C136.522 24.034 136.386 24.43 136.212 24.7667C136.038 25.1035 135.822 25.4016 135.564 25.661C135.306 25.9207 134.983 26.1169 134.593 26.25C134.202 26.3832 133.757 26.4498 133.256 26.4498C132.754 26.4498 132.19 26.383 131.563 26.25C130.936 26.1167 130.379 25.9451 129.892 25.7345V31.9622H126.987V31.9624ZM129.892 23.7149C130.616 23.9954 131.486 24.1357 132.503 24.1357C132.838 24.1357 133.102 24.055 133.297 23.8937C133.492 23.7326 133.649 23.3993 133.767 22.8943C133.886 22.3892 133.945 21.681 133.945 20.7693C133.945 19.5632 133.826 18.7179 133.59 18.234C133.353 17.7501 132.991 17.508 132.503 17.508C131.472 17.508 130.602 17.7324 129.892 18.1812V23.7149Z" fill="#2D2D2D"/>
<path d="M60.7139 47.3214V31.9203H67.0237C68.5 31.9203 69.5865 32.3026 70.2831 33.067C70.9796 33.8317 71.3278 34.8238 71.3278 36.0441C71.3278 36.8298 71.1535 37.5417 70.8055 38.1797C70.4571 38.8181 69.9349 39.1999 69.2385 39.3263C69.9071 39.4526 70.464 39.828 70.9099 40.4519C71.3555 41.0761 71.5785 41.8583 71.5785 42.7979C71.5785 43.5273 71.4913 44.1655 71.3174 44.7125C71.1431 45.2595 70.8786 45.7296 70.5234 46.122C70.1682 46.5149 69.7014 46.8131 69.1235 47.0161C68.5453 47.2197 67.8595 47.3212 67.0655 47.3212H60.7139V47.3214ZM63.639 38.0219H66.8357C67.3648 38.0219 67.7655 37.8715 68.0371 37.5697C68.3087 37.2681 68.4445 36.8368 68.4445 36.2756C68.4445 36.0515 68.4236 35.8443 68.3818 35.6549C68.34 35.4653 68.2774 35.3077 68.1938 35.1813C68.1102 35.0553 68.0195 34.9468 67.9222 34.8552C67.8245 34.7642 67.7132 34.6974 67.5879 34.6555C67.4625 34.6132 67.3404 34.5819 67.2222 34.5608C67.1036 34.5398 66.9748 34.5293 66.8357 34.5293H63.639V38.0219ZM63.639 44.7125L66.9611 44.7333C68.0893 44.7333 68.6534 44.0464 68.6534 42.6714C68.6534 42.2649 68.6012 41.9072 68.4967 41.5984C68.3923 41.29 68.2075 41.0303 67.9431 40.82C67.6782 40.6096 67.3509 40.5044 66.9611 40.5044H63.639V44.7125Z" fill="#2D2D2D"/>
<path d="M73.6884 43.5763V36.1493H76.6135V43.6393C76.6135 44.6353 77.0242 45.1331 77.8462 45.1331C78.2223 45.1331 78.5635 45.0982 78.87 45.0279C79.1762 44.9579 79.4515 44.8563 79.6953 44.723C79.9388 44.5898 80.2141 44.4041 80.5206 44.1655V36.1495H83.4457V47.3216H81.0847L80.5206 46.1434C80.3952 46.2137 80.1932 46.3399 79.9146 46.5221C79.6359 46.7046 79.4236 46.8375 79.2774 46.9218C79.1311 47.006 78.929 47.1044 78.6715 47.2164C78.4136 47.3284 78.1524 47.4058 77.888 47.4478C77.6231 47.4899 77.3238 47.5108 76.9895 47.5108C74.7886 47.5108 73.6884 46.1993 73.6884 43.5763Z" fill="#2D2D2D"/>
<path d="M85.5975 41.788C85.5975 41.0167 85.6254 40.3542 85.6811 39.7997C85.7366 39.2459 85.8411 38.7162 85.9945 38.2114C86.1477 37.7063 86.3567 37.2997 86.6213 36.9909C86.8858 36.6825 87.234 36.4371 87.666 36.2547C88.0976 36.0724 88.6132 35.9812 89.2121 35.9812C89.5323 35.9812 89.8875 36.0097 90.2777 36.0654C90.6675 36.1217 91.068 36.2058 91.4791 36.3178C91.8898 36.4303 92.2554 36.5635 92.576 36.7178V30.8053H95.5011V47.3214H93.0774L92.576 46.1853C92.1718 46.5221 91.6636 46.8165 91.0507 47.0689C90.4377 47.3214 89.825 47.4477 89.2121 47.4477C88.9473 47.4477 88.6965 47.4266 88.4599 47.3845C88.223 47.3425 88.0036 47.2793 87.8018 47.195C87.5996 47.1108 87.4116 47.0093 87.2377 46.8901C87.0634 46.7711 86.9067 46.6269 86.7676 46.4588C86.6281 46.2905 86.4992 46.1116 86.381 45.9223C86.2626 45.7327 86.1617 45.5223 86.0781 45.2911C85.9945 45.0597 85.9214 44.8144 85.8587 44.5547C85.796 44.2954 85.7471 44.0149 85.7124 43.7131C85.6776 43.4117 85.6498 43.103 85.6289 42.7874C85.608 42.472 85.5975 42.1388 85.5975 41.788ZM88.5228 41.6828C88.5228 42.8752 88.641 43.7131 88.878 44.197C89.1146 44.6809 89.4839 44.9231 89.9854 44.9231C90.5006 44.9231 90.9778 44.8635 91.4166 44.7441C91.8553 44.6252 92.2419 44.46 92.5762 44.2498V38.7164C92.381 38.6322 92.1825 38.5658 91.9807 38.5165C91.7785 38.4676 91.5733 38.4255 91.3643 38.3905C91.1554 38.3556 90.936 38.3308 90.7062 38.3168C90.4764 38.303 90.2361 38.2958 89.9854 38.2958C89.7764 38.2958 89.6021 38.3205 89.463 38.3694C89.3235 38.4187 89.1914 38.5167 89.0661 38.664C88.9407 38.8114 88.8395 39.008 88.7631 39.2531C88.6865 39.4987 88.6273 39.8212 88.5855 40.2209C88.5437 40.6207 88.5228 41.1079 88.5228 41.6828Z" fill="#2D2D2D"/>
<path d="M97.7369 41.788C97.7369 41.0167 97.7648 40.3542 97.8205 39.7997C97.876 39.2459 97.9805 38.7162 98.1339 38.2114C98.2871 37.7063 98.4961 37.2997 98.7607 36.9909C99.0252 36.6825 99.3734 36.4371 99.8054 36.2547C100.237 36.0724 100.753 35.9812 101.352 35.9812C101.672 35.9812 102.027 36.0097 102.417 36.0654C102.807 36.1217 103.207 36.2058 103.618 36.3178C104.029 36.4303 104.395 36.5635 104.715 36.7178V30.8053H107.64V47.3214H105.217L104.715 46.1853C104.311 46.5221 103.803 46.8165 103.19 47.0689C102.577 47.3214 101.964 47.4477 101.352 47.4477C101.087 47.4477 100.836 47.4266 100.599 47.3845C100.362 47.3425 100.143 47.2793 99.9412 47.195C99.739 47.1108 99.551 47.0093 99.3771 46.8901C99.2028 46.7711 99.0461 46.6269 98.907 46.4588C98.7675 46.2905 98.6386 46.1116 98.5204 45.9223C98.402 45.7327 98.3011 45.5223 98.2175 45.2911C98.1339 45.0597 98.0608 44.8144 97.9981 44.5547C97.9354 44.2954 97.8865 44.0149 97.8519 43.7131C97.817 43.4117 97.7892 43.103 97.7683 42.7874C97.7472 42.472 97.7369 42.1388 97.7369 41.788ZM100.662 41.6828C100.662 42.8752 100.78 43.7131 101.017 44.197C101.254 44.6809 101.623 44.9231 102.125 44.9231C102.64 44.9231 103.117 44.8635 103.556 44.7441C103.995 44.6252 104.381 44.46 104.715 44.2498V38.7164C104.52 38.6322 104.322 38.5658 104.12 38.5165C103.918 38.4676 103.712 38.4255 103.504 38.3905C103.295 38.3556 103.075 38.3308 102.845 38.3168C102.616 38.303 102.375 38.2958 102.125 38.2958C101.916 38.2958 101.741 38.3205 101.602 38.3694C101.463 38.4187 101.331 38.5167 101.205 38.664C101.08 38.8114 100.979 39.008 100.902 39.2531C100.826 39.4987 100.767 39.8212 100.725 40.2209C100.683 40.6207 100.662 41.1079 100.662 41.6828Z" fill="#2D2D2D"/>
<path d="M110.231 34.4872V32.6357C110.231 32.271 110.398 32.0885 110.733 32.0885H112.926C113.233 32.0885 113.386 32.271 113.386 32.6357V34.4872C113.386 34.6417 113.348 34.7607 113.271 34.8449C113.195 34.929 113.079 34.9709 112.926 34.9709H110.733C110.635 34.9709 110.548 34.9536 110.471 34.9183C110.395 34.8834 110.336 34.8271 110.294 34.75C110.252 34.6732 110.231 34.5856 110.231 34.4872ZM110.336 47.3214V36.1493H113.261V47.3214H110.336Z" fill="#2D2D2D"/>
<path d="M115.601 41.6828C115.601 40.715 115.66 39.9049 115.778 39.2527C115.896 38.6005 116.067 38.0606 116.29 37.6326C116.513 37.205 116.826 36.8789 117.23 36.6545C117.634 36.4303 118.083 36.2758 118.578 36.1916C119.072 36.1073 119.696 36.0654 120.448 36.0654C120.949 36.0654 121.374 36.0761 121.722 36.0969C122.07 36.118 122.422 36.16 122.778 36.2232C123.133 36.2861 123.422 36.3777 123.645 36.4965C123.867 36.6159 124.083 36.7772 124.292 36.9804C124.501 37.184 124.665 37.4294 124.783 37.7168C124.902 38.0045 124.992 38.348 125.055 38.7477C125.118 39.1475 125.149 39.6071 125.149 40.1258C125.149 41.1077 124.891 41.823 124.376 42.2719C123.86 42.7209 123.087 42.9452 122.057 42.9452H118.526C118.526 43.5904 118.62 44.0708 118.808 44.3862C118.996 44.7018 119.232 44.8948 119.518 44.965C119.803 45.0351 120.253 45.0702 120.866 45.0702C122.579 45.0702 123.937 44.993 124.94 44.8387V46.8375C123.895 47.2304 122.001 47.4266 119.257 47.4266C118.547 47.4266 117.958 47.3214 117.491 47.111C117.025 46.9006 116.652 46.557 116.374 46.0801C116.095 45.6034 115.896 45.0143 115.778 44.3127C115.66 43.6116 115.601 42.7348 115.601 41.6828ZM118.526 40.8201H121.305C121.917 40.8201 122.224 40.5398 122.224 39.9786C122.224 39.2774 122.13 38.8251 121.942 38.6215C121.754 38.4183 121.312 38.3166 120.615 38.3166C120.169 38.3166 119.838 38.3343 119.623 38.3692C119.407 38.4045 119.198 38.5029 118.996 38.6638C118.794 38.8253 118.662 39.074 118.599 39.4107C118.536 39.7471 118.512 40.2172 118.526 40.8201Z" fill="#2D2D2D"/>
<path d="M127.05 40.0206V39.0526C127.05 37.047 128.011 36.0441 129.933 36.0441C133.235 36.0441 135.212 36.2335 135.867 36.6122V38.4637H130.832C130.651 38.4637 130.501 38.4777 130.383 38.5058C130.264 38.5342 130.177 38.5829 130.121 38.6531C130.065 38.7234 130.027 38.8003 130.006 38.8845C129.986 38.9686 129.975 39.0879 129.975 39.2422V39.7471C129.975 40.0699 130.045 40.2698 130.184 40.3467C130.323 40.4239 130.539 40.4625 130.832 40.4625H133.464C133.98 40.4625 134.429 40.5361 134.812 40.6834C135.195 40.8307 135.501 41.0377 135.731 41.3042C135.961 41.5708 136.132 41.876 136.243 42.2193C136.355 42.5633 136.41 42.9383 136.41 43.3449V44.5021C136.41 46.1853 135.707 47.1461 134.3 47.3845C134.105 47.4126 133.903 47.4266 133.694 47.4266C130.184 47.4266 128.122 47.2234 127.51 46.8165V44.986H132.754C133.242 44.986 133.485 44.7476 133.485 44.2707V43.7447C133.485 43.5765 133.468 43.4433 133.433 43.3449C133.398 43.2469 133.325 43.1698 133.214 43.1135C133.102 43.0576 132.949 43.0291 132.754 43.0291H130.163C129.146 43.0291 128.373 42.7907 127.844 42.3138C127.314 41.8375 127.05 41.0726 127.05 40.0206Z" fill="#2D2D2D"/>
<path d="M23.2565 31.4888L26.1793 31.355L24.7627 28.7543L23.2565 31.4888Z" fill="white"/>
<path d="M24.8609 3.89624C25.9119 3.89624 26.9636 4.16879 27.7595 4.71367L42.7764 14.9927C44.3604 16.0767 45.6564 18.542 45.6564 20.4705V38.8711C45.6564 40.7995 44.3803 43.2935 42.8207 44.4129L27.7152 55.2546C26.927 55.8201 25.8827 56.1038 24.8396 56.1038C23.8187 56.1038 22.7986 55.832 22.0209 55.2875L6.72793 44.5763C5.1555 43.4753 3.86919 40.9959 3.86919 39.0674V20.4705C3.86919 18.542 5.16981 16.0835 6.75927 15.0075L21.9895 4.69887C22.7802 4.16353 23.8203 3.89624 24.8609 3.89624ZM24.8609 0C23.0131 0 21.2267 0.520343 19.8309 1.46538L4.60085 11.7739C1.93479 13.5786 0 17.236 0 20.4705V39.0674C0 42.2793 1.90035 45.9414 4.51863 47.7751L19.8114 58.4861C21.2055 59.4625 22.9911 60 24.8394 60C26.7291 60 28.5478 59.4415 29.9608 58.4273L45.0663 47.5856C47.65 45.731 49.5254 42.0662 49.5254 38.8711V20.4705C49.5254 17.2434 47.6016 13.5841 44.951 11.7704L29.9345 1.49129C28.5292 0.529694 26.7274 0 24.8609 0Z" fill="#F99848"/>
</svg>
