<?xml version="1.0" encoding="UTF-8" standalone="no"?>
<!DOCTYPE svg PUBLIC "-//W3C//DTD SVG 1.1//EN" "http://www.w3.org/Graphics/SVG/1.1/DTD/svg11.dtd">
<svg width="100%" height="100%" viewBox="0 0 110 83" version="1.1" xmlns="http://www.w3.org/2000/svg" xmlns:xlink="http://www.w3.org/1999/xlink" xml:space="preserve" xmlns:serif="http://www.serif.com/" style="fill-rule:evenodd;clip-rule:evenodd;">
    <g transform="matrix(1,0,0,1,-6739.03,-7825.39)">
        <g transform="matrix(0.438837,0,0,0.537483,8447.07,5951.15)">
            <g id="Flag_of_the_United_Kingdom--2-" serif:id="Flag_of_the_United_Kingdom (2)" transform="matrix(0.314162,0,0,0.256503,-3767.72,3564.02)">
                <clipPath id="_clip1">
                    <path d="M-396.232,-150C-396.232,-232.787 -329.02,-300 -246.232,-300L396.232,-300L396.232,150C396.232,232.787 329.02,300 246.232,300L-396.232,300L-396.232,-150Z"/>
                </clipPath>
                <g clip-path="url(#_clip1)">
                    <g transform="matrix(1,0,0,1,-600,-300)">
                        <clipPath id="_clip2">
                            <rect x="0" y="0" width="1200" height="600"/>
                        </clipPath>
                        <g clip-path="url(#_clip2)">
                            <g>
                                <rect x="0" y="0" width="1200" height="600" style="fill:rgb(1,33,105);"/>
                                <path d="M0,0L1200,600M1200,0L0,600" style="fill-rule:nonzero;stroke:white;stroke-width:120px;"/>
                                <path d="M0,0L1200,600M1200,0L0,600" style="fill-rule:nonzero;stroke:rgb(200,16,46);stroke-width:80px;"/>
                                <path d="M1200,600L1085.67,600L600,357.167L600,300L1200,600Z" style="fill:white;"/>
                                <g transform="matrix(-1,0,0,-1,1179,590)">
                                    <path d="M1200,600L1085.67,600L600,357.167L600,300L1200,600Z" style="fill:white;"/>
                                </g>
                                <g transform="matrix(1,0,0,-1,120,597)">
                                    <path d="M1200,600L1085.67,600L600,357.167L600,300L1200,600Z" style="fill:white;"/>
                                </g>
                                <g transform="matrix(-1,0,0,1,1087,0)">
                                    <path d="M1200,600L1085.67,600L600,357.167L600,300L1200,600Z" style="fill:white;"/>
                                </g>
                                <path d="M600,0L600,600M0,300L1200,300" style="fill-rule:nonzero;stroke:white;stroke-width:200px;"/>
                                <path d="M600,0L600,600M0,300L1200,300" style="fill-rule:nonzero;stroke:rgb(200,16,46);stroke-width:120px;"/>
                            </g>
                        </g>
                    </g>
                </g>
            </g>
        </g>
    </g>
</svg>
