<?xml version="1.0" encoding="UTF-8" standalone="no"?>
<!DOCTYPE svg PUBLIC "-//W3C//DTD SVG 1.1//EN" "http://www.w3.org/Graphics/SVG/1.1/DTD/svg11.dtd">
<svg width="100%" height="100%" viewBox="0 0 110 83" version="1.1" xmlns="http://www.w3.org/2000/svg" xmlns:xlink="http://www.w3.org/1999/xlink" xml:space="preserve" xmlns:serif="http://www.serif.com/" style="fill-rule:evenodd;clip-rule:evenodd;stroke-linejoin:round;stroke-miterlimit:2;">
    <g transform="matrix(1,0,0,1,-7099.57,-7825.66)">
        <g transform="matrix(0.438837,0,0,0.537483,8447.07,5951.15)">
            <g id="Flag_of_France" transform="matrix(0.314162,0,0,0.256503,-2946.15,3564.53)">
                <clipPath id="_clip1">
                    <path d="M-396.232,-150C-396.232,-232.787 -329.02,-300 -246.232,-300L396.232,-300L396.232,150C396.232,232.787 329.02,300 246.232,300L-396.232,300L-396.232,-150Z"/>
                </clipPath>
                <g clip-path="url(#_clip1)">
                    <g transform="matrix(1,0,0,1,-450,-300)">
                        <rect x="0" y="0" width="900" height="600" style="fill:rgb(237,41,57);"/>
                        <rect x="0" y="0" width="600" height="600" style="fill:white;"/>
                        <rect x="0" y="0" width="300" height="600" style="fill:rgb(0,35,149);"/>
                    </g>
                </g>
            </g>
        </g>
    </g>
</svg>
