<?xml version="1.0" encoding="UTF-8" standalone="no"?>
<!DOCTYPE svg PUBLIC "-//W3C//DTD SVG 1.1//EN" "http://www.w3.org/Graphics/SVG/1.1/DTD/svg11.dtd">
<svg width="100%" height="100%" viewBox="0 0 110 83" version="1.1" xmlns="http://www.w3.org/2000/svg" xmlns:xlink="http://www.w3.org/1999/xlink" xml:space="preserve" xmlns:serif="http://www.serif.com/" style="fill-rule:evenodd;clip-rule:evenodd;stroke-linejoin:round;stroke-miterlimit:2;">
    <g transform="matrix(1,0,0,1,-6549.48,-7827.04)">
        <g transform="matrix(0.438837,0,0,0.537483,8447.07,5951.15)">
            <g id="Flag_of_Germany" transform="matrix(0.314162,0,0,0.256503,-4199.65,3567.1)">
                <clipPath id="_clip1">
                    <path d="M-396.232,-150C-396.232,-232.787 -329.02,-300 -246.232,-300L396.232,-300L396.232,150C396.232,232.787 329.02,300 246.232,300L-396.232,300L-396.232,-150Z"/>
                </clipPath>
                <g clip-path="url(#_clip1)">
                    <g transform="matrix(1,0,0,1,-500,-300)">
                        <rect id="black_stripe" x="0" y="0" width="1000" height="600"/>
                        <rect id="red_stripe" x="0" y="200" width="1000" height="400" style="fill:rgb(221,0,0);"/>
                        <rect id="gold_stripe" x="0" y="400" width="1000" height="200" style="fill:rgb(255,206,0);"/>
                    </g>
                </g>
            </g>
        </g>
    </g>
</svg>
